<?xml version="1.0" encoding="UTF-8"?>
<svg version="1.1" xmlns="http://www.w3.org/2000/svg" width="500" height="500">
<path d="M0 0 C165 0 330 0 500 0 C500 165 500 330 500 500 C335 500 170 500 0 500 C0 335 0 170 0 0 Z " fill="#FEFEFE" transform="translate(0,0)"/>
<path d="M0 0 C0.80107178 0.30019043 1.60214355 0.60038086 2.42749023 0.90966797 C6.07263237 2.5128167 8.45112989 3.6487482 9.99267578 7.44384766 C10.56596579 10.43414073 10.8616449 13.33730576 11.0625 16.375 C11.16498047 17.39078125 11.26746094 18.4065625 11.37304688 19.453125 C11.86872743 24.64596887 12.11015797 29.78585616 12 35 C9.42945675 32.42945675 8.4477006 29.74708855 6.9375 26.4375 C0.1517161 12.53950496 -10.9491113 6.00716039 -25.11328125 0.87109375 C-27.40021468 0.1697675 -29.67196102 -0.45408388 -32 -1 C-32.62390625 -1.16983398 -33.2478125 -1.33966797 -33.890625 -1.51464844 C-48.43754908 -4.86178791 -65.87473275 -1.24716177 -78.48046875 6.3125 C-89.45626931 13.66373386 -97.17281145 22.00365851 -103.3125 33.6875 C-103.63814941 34.285625 -103.96379883 34.88375 -104.29931641 35.5 C-106.58654983 40.09587621 -107.65824413 44.76826856 -108.61010742 49.78833008 C-108.74524498 50.48294594 -108.88038254 51.1775618 -109.01961517 51.89322662 C-109.35010404 53.59477111 -109.67556153 55.29729151 -110 57 C-109.32762645 56.99723462 -108.6552529 56.99446924 -107.96250439 56.99162006 C-91.61322284 56.92540924 -75.26398369 56.87574337 -58.91459942 56.84456348 C-51.00820289 56.82908491 -43.10189578 56.80797659 -35.19555664 56.77368164 C-28.3055647 56.74380946 -21.41563751 56.7244322 -14.52558261 56.71773452 C-10.87625892 56.71381852 -7.22712047 56.70459511 -3.57785606 56.68280983 C0.49285781 56.658705 4.56324824 56.65802859 8.6340332 56.65942383 C9.84819412 56.648638 11.06235504 56.63785217 12.31330872 56.6267395 C13.97287598 56.63292549 13.97287598 56.63292549 15.66596985 56.63923645 C16.62924352 56.63647107 17.59251719 56.63370569 18.58498096 56.63085651 C21 57 21 57 22.80627728 58.29207897 C24.84920534 61.21500213 24.4711166 64.56499479 24.4375 68 C24.45748047 68.72445312 24.47746094 69.44890625 24.49804688 70.1953125 C24.49315108 75.50235145 24.49315108 75.50235145 22.30751419 77.70792103 C19.51319313 79.27258464 17.77681668 79.37001009 14.5836792 79.36076355 C13.48434052 79.36488754 12.38500183 79.36901154 11.25234985 79.3732605 C10.05113495 79.36247467 8.84992004 79.35168884 7.61230469 79.34057617 C6.34375641 79.34101425 5.07520813 79.34145233 3.76821899 79.34190369 C0.2932324 79.34276426 -3.18144339 79.3251288 -6.65635777 79.30418181 C-10.28917934 79.28542517 -13.92200808 79.28366538 -17.55487061 79.28010559 C-24.43258694 79.27078213 -31.31016019 79.24616434 -38.18781352 79.21605712 C-46.01845051 79.18252243 -53.84909433 79.16602946 -61.67978525 79.15097082 C-77.78660726 79.11961499 -93.89328537 79.06684872 -110 79 C-109.5254572 80.92937256 -109.04881855 82.85822972 -108.57128906 84.78686523 C-108.17348236 86.39814552 -108.17348236 86.39814552 -107.76763916 88.04197693 C-103.49936529 104.48935641 -93.41753288 119.28026057 -78.99926758 128.40942383 C-61.69297993 138.58064187 -39.51443076 140.22175546 -20.125 135.375 C-4.62867734 130.71959214 10.18001271 121.79350512 18.1015625 107.25390625 C23.81332996 96.27825215 27.26116145 86.29130653 28.6875 73.9375 C28.88182617 72.35291992 28.88182617 72.35291992 29.08007812 70.73632812 C29.39502445 68.15843412 29.70147722 65.57983838 30 63 C30.66 63 31.32 63 32 63 C32.74990743 86.99703787 28.60611858 107.8456418 12 126 C-4.28717959 141.81810882 -25.1153843 145.41528173 -46.91235352 145.36816406 C-66.51750787 144.99557604 -84.81205279 138.49917187 -100 126 C-100.77730469 125.39671875 -101.55460937 124.7934375 -102.35546875 124.171875 C-116.02909425 112.96938664 -123.17156091 96.73784938 -127.23828125 79.921875 C-127.703604 77.12777588 -127.703604 77.12777588 -129 76 C-129.47296703 68.35976328 -129.92192605 60.57861278 -126.97265625 53.390625 C-125.93911008 50.85034285 -125.15232119 48.26836983 -124.35717773 45.64550781 C-118.22286831 25.86377818 -104.349461 9.57208145 -86.1953125 -0.43359375 C-59.29396074 -13.62117573 -27.09153464 -11.63503342 0 0 Z " fill="#DCDCDC" transform="translate(261,173)"/>
<path d="M0 0 C0.66 0 1.32 0 2 0 C2.74990743 23.99703787 -1.39388142 44.8456418 -18 63 C-34.28717959 78.81810882 -55.1153843 82.41528173 -76.91235352 82.36816406 C-96.51750787 81.99557604 -114.81205279 75.49917187 -130 63 C-130.77730469 62.39671875 -131.55460937 61.7934375 -132.35546875 61.171875 C-144.56486091 51.1689995 -153.53164524 35.55063501 -156 20 C-156 18.68 -156 17.36 -156 16 C-150.72 16 -145.44 16 -140 16 C-139.608125 17.7325 -139.21625 19.465 -138.8125 21.25 C-134.27663607 39.20358236 -124.917486 55.33054042 -108.99926758 65.40942383 C-91.69297993 75.58064187 -69.51443076 77.22175546 -50.125 72.375 C-34.62867734 67.71959214 -19.81998729 58.79350512 -11.8984375 44.25390625 C-6.18667004 33.27825215 -2.73883855 23.29130653 -1.3125 10.9375 C-1.11817383 9.35291992 -1.11817383 9.35291992 -0.91992188 7.73632812 C-0.60497555 5.15843412 -0.29852278 2.57983838 0 0 Z " fill="#0A0A0A" transform="translate(291,236)"/>
<path d="M0 0 C1.20160767 0.45028564 1.20160767 0.45028564 2.42749023 0.90966797 C6.07263237 2.5128167 8.45112989 3.6487482 9.99267578 7.44384766 C10.56596579 10.43414073 10.8616449 13.33730576 11.0625 16.375 C11.16498047 17.39078125 11.26746094 18.4065625 11.37304688 19.453125 C11.86872743 24.64596887 12.11015797 29.78585616 12 35 C9.42945675 32.42945675 8.4477006 29.74708855 6.9375 26.4375 C0.1517161 12.53950496 -10.9491113 6.00716039 -25.11328125 0.87109375 C-27.40021468 0.1697675 -29.67196102 -0.45408388 -32 -1 C-32.62390625 -1.16983398 -33.2478125 -1.33966797 -33.890625 -1.51464844 C-48.43754908 -4.86178791 -65.87473275 -1.24716177 -78.48046875 6.3125 C-93.48513195 16.36213489 -104.65366008 30.42115406 -108.59448242 48.2980957 C-109.1266565 51.18772726 -109.55322143 54.09593928 -110 57 C-115.28 57 -120.56 57 -126 57 C-125.17760714 38.63322622 -115.21759107 22.90487246 -102.046875 10.625 C-97.7323023 6.79835229 -93.04922894 3.76965058 -88 1 C-87.1440625 0.52949219 -86.288125 0.05898437 -85.40625 -0.42578125 C-59.24551679 -14.11172038 -26.52423756 -11.39139567 0 0 Z " fill="#060606" transform="translate(261,173)"/>
<path d="M0 0 C1.9375 0.75 1.9375 0.75 3.9375 2.75 C3.36931818 8.31818182 3.36931818 8.31818182 1.9375 9.75 C-0.5 9.9375 -0.5 9.9375 -3.0625 9.75 C-5.0625 7.75 -5.0625 7.75 -5.375 4.75 C-5.271875 3.76 -5.16875 2.77 -5.0625 1.75 C-2.0625 -0.25 -2.0625 -0.25 0 0 Z " fill="#2D2D2D" transform="translate(217.0625,234.25)"/>
<path d="M0 0 C2.875 -0.125 2.875 -0.125 6 0 C6.66 0.66 7.32 1.32 8 2 C7.625 5.125 7.625 5.125 7 8 C4.69 8.33 2.38 8.66 0 9 C0 6.03 0 3.06 0 0 Z " fill="#191919" transform="translate(233,235)"/>
<path d="M0 0 C2.31 0.33 4.62 0.66 7 1 C7 2.65 7 4.3 7 6 C5.35 6 3.7 6 2 6 C2 7.32 2 8.64 2 10 C1.34 10 0.68 10 0 10 C0 6.7 0 3.4 0 0 Z " fill="#555555" transform="translate(193,234)"/>
<path d="M0 0 C3 1 3 1 3.94921875 2.84765625 C4.19285156 3.57855469 4.43648438 4.30945313 4.6875 5.0625 C5.06455078 6.16271484 5.06455078 6.16271484 5.44921875 7.28515625 C5.63097656 7.85105469 5.81273437 8.41695312 6 9 C4.88625 8.814375 3.7725 8.62875 2.625 8.4375 C-0.82568861 7.68319343 -0.82568861 7.68319343 -3 9 C-2.44271087 5.65626525 -1.64826111 2.96687001 0 0 Z " fill="#4D4D4D" transform="translate(269,235)"/>
<path d="M0 0 C1.1446875 0.3403125 1.1446875 0.3403125 2.3125 0.6875 C2.3125 1.3475 2.3125 2.0075 2.3125 2.6875 C0.6625 2.6875 -0.9875 2.6875 -2.6875 2.6875 C-2.6875 4.0075 -2.6875 5.3275 -2.6875 6.6875 C-1.0375 6.6875 0.6125 6.6875 2.3125 6.6875 C1.9825 7.6775 1.6525 8.6675 1.3125 9.6875 C-1.0625 9.8125 -1.0625 9.8125 -3.6875 9.6875 C-5.6875 7.6875 -5.6875 7.6875 -6 5.25 C-5.6875 2.6875 -5.6875 2.6875 -4.5 0.8125 C-2.6875 -0.3125 -2.6875 -0.3125 0 0 Z " fill="#303030" transform="translate(148.6875,234.3125)"/>
<path d="M0 0 C2.475 0.495 2.475 0.495 5 1 C4.67 2.65 4.34 4.3 4 6 C2.68 6 1.36 6 0 6 C0 4.02 0 2.04 0 0 Z " fill="#CDCDCD" transform="translate(234,236)"/>
<path d="M0 0 C0.66 0 1.32 0 2 0 C2 2.64 2 5.28 2 8 C3.32 8 4.64 8 6 8 C6 8.66 6 9.32 6 10 C4.02 10 2.04 10 0 10 C0 6.7 0 3.4 0 0 Z " fill="#404040" transform="translate(163,234)"/>
<path d="M0 0 C2.0625 0.4375 2.0625 0.4375 4 1 C3.67 2.65 3.34 4.3 3 6 C1.68 6 0.36 6 -1 6 C-1.042721 4.33388095 -1.04063832 2.66617115 -1 1 C-0.67 0.67 -0.34 0.34 0 0 Z " fill="#D7D7D7" transform="translate(215,236)"/>
<path d="M0 0 C0.99 0.33 1.98 0.66 3 1 C2.67 1.99 2.34 2.98 2 4 C1.34 3.67 0.68 3.34 0 3 C-0.12375 3.804375 -0.2475 4.60875 -0.375 5.4375 C-0.58125 6.283125 -0.7875 7.12875 -1 8 C-1.99 8.495 -1.99 8.495 -3 9 C-2.44271087 5.65626525 -1.64826111 2.96687001 0 0 Z " fill="#222222" transform="translate(269,235)"/>
</svg>
